HIERARCHY
ROOT root
{
	OFFSET 0.00 0.00 0.00
	CHANNELS 6 Xposition Yposition Zposition Zrotation Xrotation Yrotation
	JOINT lowerback
	{
		OFFSET 0 0 0
		CHANNELS 6 Xposition Yposition Zposition Zrotation Xrotation Yrotation
		JOINT upperback
		{
			OFFSET -0.214371 12.3768 -1.12219
			CHANNELS 6 Xposition Yposition Zposition Zrotation Xrotation Yrotation
			JOINT thorax
			{
				OFFSET -0.00137213 12.3873 0.296195
				CHANNELS 6 Xposition Yposition Zposition Zrotation Xrotation Yrotation
				JOINT lowerneck
				{
					OFFSET 0.0883157 12.5016 0.82912
					CHANNELS 6 Xposition Yposition Zposition Zrotation Xrotation Yrotation
					JOINT upperneck
					{
						OFFSET -1 10.1794 0.943522
						CHANNELS 6 Xposition Yposition Zposition Zrotation Xrotation Yrotation
						JOINT head
						{
							OFFSET 0.667525 10.2797 -1.57149
							CHANNELS 6 Xposition Yposition Zposition Zrotation Xrotation Yrotation
							End Site
							{
								OFFSET 0 0 0
							}
						}
					}
				}
				JOINT lclavicle
				{
					OFFSET 0.0883157 12.5016 0.82912
					CHANNELS 6 Xposition Yposition Zposition Zrotation Xrotation Yrotation
					JOINT lhumerus
					{
						OFFSET 20.61 4.45006 1.43784
						CHANNELS 6 Xposition Yposition Zposition Zrotation Xrotation Yrotation
						JOINT lradius
						{
							OFFSET 0 -30.3438 0
							CHANNELS 6 Xposition Yposition Zposition Zrotation Xrotation Yrotation
							JOINT lwrist
							{
								OFFSET 0 -18.964 0
								CHANNELS 6 Xposition Yposition Zposition Zrotation Xrotation Yrotation
								JOINT lhand
								{
									OFFSET 0 -9.48199 0
									CHANNELS 6 Xposition Yposition Zposition Zrotation Xrotation Yrotation
									JOINT lfingers
									{
										OFFSET 0 -3.17138 0
										CHANNELS 6 Xposition Yposition Zposition Zrotation Xrotation Yrotation
										End Site
										{
											OFFSET 0 -2.55685 0
										}
									}
								}
								JOINT lthumb
								{
									OFFSET 0 -9.48199 0
									CHANNELS 6 Xposition Yposition Zposition Zrotation Xrotation Yrotation
									End Site
									{
										OFFSET 0 -3.67114 0
									}
								}
							}
						}
					}
				}
				JOINT rclavicle
				{
					OFFSET 0.0883157 12.5016 0.82912
					CHANNELS 6 Xposition Yposition Zposition Zrotation Xrotation Yrotation
					JOINT rhumerus
					{
						OFFSET -20.61 4.45 1.44
						CHANNELS 6 Xposition Yposition Zposition Zrotation Xrotation Yrotation
						JOINT rradius
						{
							OFFSET 0 -29.5102 0
							CHANNELS 6 Xposition Yposition Zposition Zrotation Xrotation Yrotation
							JOINT rwrist
							{
								OFFSET 0 -19.2342 0
								CHANNELS 6 Xposition Yposition Zposition Zrotation Xrotation Yrotation
								JOINT rhand
								{
									OFFSET 0 -9.61712 0
									CHANNELS 6 Xposition Yposition Zposition Zrotation Xrotation Yrotation
									JOINT rfingers
									{
										OFFSET 0 -3.29215 0
										CHANNELS 6 Xposition Yposition Zposition Zrotation Xrotation Yrotation
										End Site
										{
											OFFSET 0 -2.557 0
										}
									}
								}
								JOINT rthumb
								{
									OFFSET 0 -9.61712 0
									CHANNELS 6 Xposition Yposition Zposition Zrotation Xrotation Yrotation
									End Site
									{
										OFFSET 0 -3.671 0
									}
								}
							}
						}
					}
				}
			}
		}
	}
	JOINT rfemur
	{
		OFFSET -8.46272 -9.62775 4.76248
		CHANNELS 6 Xposition Yposition Zposition Zrotation Xrotation Yrotation
		JOINT rtibia
		{
			OFFSET 1.00552e-005 -38.0331 0
			CHANNELS 6 Xposition Yposition Zposition Zrotation Xrotation Yrotation
			JOINT rfoot
			{
				OFFSET 1.14428e-005 -43.2815 0
				CHANNELS 6 Xposition Yposition Zposition Zrotation Xrotation Yrotation
				JOINT rtoes
				{
					OFFSET 0 -14.1868 -3.08763
					CHANNELS 6 Xposition Yposition Zposition Zrotation Xrotation Yrotation
					End Site
					{
						OFFSET 0 -7.27332 0
					}
				}
			}
		}
	}
	JOINT lfemur
	{
		OFFSET 9.10607 -9.62778 4.76249
		CHANNELS 6 Xposition Yposition Zposition Zrotation Xrotation Yrotation
		JOINT ltibia
		{
			OFFSET -1.01399e-005 -38.3535 0
			CHANNELS 6 Xposition Yposition Zposition Zrotation Xrotation Yrotation
			JOINT lfoot
			{
				OFFSET -1.12937e-005 -42.7176 0
				CHANNELS 6 Xposition Yposition Zposition Zrotation Xrotation Yrotation
				JOINT ltoes
				{
					OFFSET 0 -13.9965 -2.83857
					CHANNELS 6 Xposition Yposition Zposition Zrotation Xrotation Yrotation
					End Site
					{
						OFFSET 0 -7.16348 0
					}
				}
			}
		}
	}
}
MOTION
Frames: 10
Frame Time: 0.00833333
-0.63725	92.7678	19.5362	-1.18421	1.34856	3.08302	0 0 0 1.3515	10.6895	0.771947	-0.214371 12.3768 -1.12219 0.243701	12.3703	0.361779	-0.00137213 12.3873 0.296195 -0.545649	7.11049	-0.0151189	0.0883157 12.5016 0.82912 -1.04801	-1.29973	-2.74955	-1 10.1794 0.943522 7.06266	4.90286	-4.04004	0.667525 10.2797 -1.57149 2.29309	1.95205	-1.90828	0.0883157 12.5016 0.82912 -15	0	-0	20.61 4.45006 1.43784 15.1726	-9.96034	-175.863	0 -30.3438 0 -0	24.0382	-0	0 -18.964 0 1.34889e-014	-2.71005e-015	-112.72	0 -9.48199 0 1.22245	4.37968	-2.58917e-014	0 -3.17138 0 -0	7.12502	-0	0 -9.48199 0 25	15	-1.36605e-015	0.0883157 12.5016 0.82912 15	0	-0	-20.61 4.45 1.44 -16.0174	-8.45636	173.689	0 -29.5102 0 -0	34.6201	-0	0 -19.2342 0 5.78211e-016	-2.78926e-015	113.423	0 -9.61712 0 1.22	4.38	-0	0 -3.29215 0 -0	7.12502	-0	0 -9.61712 0 25	15	-7.97034e-015	-8.46272 -9.62775 4.76248 -2.23212	-18.2242	-5.22897	1.00552e-005 -38.0331 0 -0	50.3243	-0	1.14428e-005 -43.2815 0 -66.5573	-82.4522	-66.739	0 -14.1868 -3.08763 -0	-39.0132	-0	9.10607 -9.62778 4.76249 5.87108	-20.1156	9.9868	-1.01399e-005 -38.3535 0 -0	41.2818	-0	-1.12937e-005 -42.7176 0 7.59018	-82.4618	7.65569	0 -13.9965 -2.83857 -0	-32.878	-0
-0.535061	92.7978	19.7117	-1.21486	1.3742	3.01704	0 0 0 1.24538	10.7195	0.794808	-0.214371 12.3768 -1.12219 0.186497	12.3412	0.391986	-0.00137213 12.3873 0.296195 -0.545664	7.06026	-0.00549908	0.0883157 12.5016 0.82912 -1.12773	-1.29857	-2.74851	-1 10.1794 0.943522 7.0455	4.91892	-4.03412	0.667525 10.2797 -1.57149 2.30194	1.95839	-1.90737	0.0883157 12.5016 0.82912 -15	0	-0	20.61 4.45006 1.43784 15.1967	-10.1242	-175.867	0 -30.3438 0 -0	24.0023	-0	0 -18.964 0 1.349e-014	-2.70745e-015	-112.697	0 -9.48199 0 1.22245	4.37968	-2.58917e-014	0 -3.17138 0 -0	7.12502	-0	0 -9.48199 0 25	15	-1.36605e-015	0.0883157 12.5016 0.82912 15	0	-0	-20.61 4.45 1.44 -15.9418	-8.43886	173.752	0 -29.5102 0 -0	34.6322	-0	0 -19.2342 0 5.80843e-016	-2.79532e-015	113.477	0 -9.61712 0 1.22	4.38	-0	0 -3.29215 0 -0	7.12502	-0	0 -9.61712 0 25	15	-7.97034e-015	-8.46272 -9.62775 4.76248 -2.30424	-18.4802	-5.23524	1.00552e-005 -38.0331 0 -0	50.8734	-0	1.14428e-005 -43.2815 0 -64.5634	-82.2137	-64.769	0 -14.1868 -3.08763 -0	-39.6451	-0	9.10607 -9.62778 4.76249 5.85698	-19.9162	10.0434	-1.01399e-005 -38.3535 0 -0	41.1283	-0	-1.12937e-005 -42.7176 0 7.23374	-82.5282	7.29515	0 -13.9965 -2.83857 -0	-32.8621	-0
-0.435125	92.8254	19.883	-1.23216	1.40179	2.93506	0 0 0 1.12974	10.7512	0.819472	-0.214371 12.3768 -1.12219 0.122726	12.3149	0.423737	-0.00137213 12.3873 0.296195 -0.545936	7.01216	0.00435645	0.0883157 12.5016 0.82912 -1.20932	-1.29949	-2.74198	-1 10.1794 0.943522 7.01853	4.93304	-4.02154	0.667525 10.2797 -1.57149 2.30808	1.96434	-1.90247	0.0883157 12.5016 0.82912 -15	0	-0	20.61 4.45006 1.43784 15.234	-10.2787	-175.913	0 -30.3438 0 -0	24.0529	-0	0 -18.964 0 1.34931e-014	-2.70022e-015	-112.633	0 -9.48199 0 1.22245	4.37968	-2.58917e-014	0 -3.17138 0 -0	7.12502	-0	0 -9.48199 0 25	15	-1.36605e-015	0.0883157 12.5016 0.82912 15	0	-0	-20.61 4.45 1.44 -15.8683	-8.42824	173.831	0 -29.5102 0 -0	34.6515	-0	0 -19.2342 0 5.82991e-016	-2.80026e-015	113.521	0 -9.61712 0 1.22	4.38	-0	0 -3.29215 0 -0	7.12502	-0	0 -9.61712 0 25	15	-7.97034e-015	-8.46272 -9.62775 4.76248 -2.39477	-18.7768	-5.24999	1.00552e-005 -38.0331 0 -0	51.4723	-0	1.14428e-005 -43.2815 0 -62.5702	-81.9574	-62.8014	0 -14.1868 -3.08763 -0	-40.1754	-0	9.10607 -9.62778 4.76249 5.83172	-19.7113	10.1091	-1.01399e-005 -38.3535 0 -0	40.9663	-0	-1.12937e-005 -42.7176 0 6.96097	-82.5894	7.01914	0 -13.9965 -2.83857 -0	-32.8431	-0
-0.338981	92.8497	20.0491	-1.23543	1.43159	2.83876	0 0 0 1.0034	10.7829	0.846092	-0.214371 12.3768 -1.12219 0.0526104	12.2915	0.457114	-0.00137213 12.3873 0.296195 -0.546357	6.96738	0.0143952	0.0883157 12.5016 0.82912 -1.29091	-1.30527	-2.73136	-1 10.1794 0.943522 6.98308	4.94425	-4.00279	0.667525 10.2797 -1.57149 2.31161	1.96946	-1.8946	0.0883157 12.5016 0.82912 -15	0	-0	20.61 4.45006 1.43784 15.2851	-10.4237	-176.003	0 -30.3438 0 -0	24.1893	-0	0 -18.964 0 1.34979e-014	-2.68846e-015	-112.529	0 -9.48199 0 1.22245	4.37968	-2.58917e-014	0 -3.17138 0 -0	7.12502	-0	0 -9.48199 0 25	15	-1.36605e-015	0.0883157 12.5016 0.82912 15	0	-0	-20.61 4.45 1.44 -15.7972	-8.42215	173.924	0 -29.5102 0 -0	34.6829	-0	0 -19.2342 0 5.8441e-016	-2.80352e-015	113.55	0 -9.61712 0 1.22	4.38	-0	0 -3.29215 0 -0	7.12502	-0	0 -9.61712 0 25	15	-7.97034e-015	-8.46272 -9.62775 4.76248 -2.50218	-19.1096	-5.27217	1.00552e-005 -38.0331 0 -0	52.1095	-0	1.14428e-005 -43.2815 0 -60.6627	-81.6911	-60.9206	0 -14.1868 -3.08763 -0	-40.6002	-0	9.10607 -9.62778 4.76249 5.79475	-19.5026	10.1829	-1.01399e-005 -38.3535 0 -0	40.798	-0	-1.12937e-005 -42.7176 0 6.77707	-82.6473	6.83285	0 -13.9965 -2.83857 -0	-32.8243	-0
-0.248902	92.8711	20.2129	-1.225	1.46359	2.73053	0 0 0 0.865995	10.8137	0.874686	-0.214371 12.3768 -1.12219 -0.0231895	12.2714	0.492078	-0.00137213 12.3873 0.296195 -0.546817	6.92665	0.0245449	0.0883157 12.5016 0.82912 -1.37046	-1.31394	-2.71721	-1 10.1794 0.943522 6.94081	4.95182	-3.97873	0.667525 10.2797 -1.57149 2.31138	1.97338	-1.88418	0.0883157 12.5016 0.82912 -15	0	-0	20.61 4.45006 1.43784 15.3504	-10.5598	-176.136	0 -30.3438 0 -0	24.4088	-0	0 -18.964 0 1.35046e-014	-2.67239e-015	-112.387	0 -9.48199 0 1.22245	4.37968	-2.58917e-014	0 -3.17138 0 -0	7.12502	-0	0 -9.48199 0 25	15	-1.36605e-015	0.0883157 12.5016 0.82912 15	0	-0	-20.61 4.45 1.44 -15.7283	-8.41768	174.032	0 -29.5102 0 -0	34.7316	-0	0 -19.2342 0 5.85095e-016	-2.80509e-015	113.564	0 -9.61712 0 1.22	4.38	-0	0 -3.29215 0 -0	7.12502	-0	0 -9.61712 0 25	15	-7.97034e-015	-8.46272 -9.62775 4.76248 -2.62366	-19.4729	-5.30056	1.00552e-005 -38.0331 0 -0	52.7704	-0	1.14428e-005 -43.2815 0 -58.9068	-81.4259	-59.1911	0 -14.1868 -3.08763 -0	-40.9246	-0	9.10607 -9.62778 4.76249 5.74681	-19.2921	10.2637	-1.01399e-005 -38.3535 0 -0	40.6259	-0	-1.12937e-005 -42.7176 0 6.67731	-82.7036	6.73144	0 -13.9965 -2.83857 -0	-32.808	-0
-0.166808	92.892	20.3761	-1.2021	1.49747	2.61318	0 0 0 0.718102	10.8428	0.905082	-0.214371 12.3768 -1.12219 -0.103634	12.2544	0.528406	-0.00137213 12.3873 0.296195 -0.547203	6.8903	0.0346979	0.0883157 12.5016 0.82912 -1.44611	-1.32447	-2.70026	-1 10.1794 0.943522 6.89322	4.95105	-3.95049	0.667525 10.2797 -1.57149 2.31026	1.97406	-1.87175	0.0883157 12.5016 0.82912 -15	0	-0	20.61 4.45006 1.43784 15.4297	-10.6881	-176.309	0 -30.3438 0 -0	24.7066	-0	0 -18.964 0 1.35129e-014	-2.65211e-015	-112.208	0 -9.48199 0 1.22245	4.37968	-2.58917e-014	0 -3.17138 0 -0	7.12502	-0	0 -9.48199 0 25	15	-1.36605e-015	0.0883157 12.5016 0.82912 15	0	-0	-20.61 4.45 1.44 -15.6621	-8.41181	174.153	0 -29.5102 0 -0	34.8021	-0	0 -19.2342 0 5.84899e-016	-2.80464e-015	113.56	0 -9.61712 0 1.22	4.38	-0	0 -3.29215 0 -0	7.12502	-0	0 -9.61712 0 25	15	-7.97034e-015	-8.46272 -9.62775 4.76248 -2.75527	-19.8606	-5.33381	1.00552e-005 -38.0331 0 -0	53.4381	-0	1.14428e-005 -43.2815 0 -57.3437	-81.1751	-57.6532	0 -14.1868 -3.08763 -0	-41.1627	-0	9.10607 -9.62778 4.76249 5.68987	-19.0821	10.3506	-1.01399e-005 -38.3535 0 -0	40.4533	-0	-1.12937e-005 -42.7176 0 6.64953	-82.7599	6.70261	0 -13.9965 -2.83857 -0	-32.7956	-0
-0.0945973	92.9123	20.5388	-1.16886	1.53264	2.48975	0 0 0 0.561377	10.87	0.936885	-0.214371 12.3768 -1.12219 -0.187383	12.2405	0.565633	-0.00137213 12.3873 0.296195 -0.547395	6.85836	0.044693	0.0883157 12.5016 0.82912 -1.51629	-1.3358	-2.68143	-1 10.1794 0.943522 6.84258	4.94938	-3.9195	0.667525 10.2797 -1.57149 2.30848	1.97456	-1.85796	0.0883157 12.5016 0.82912 -15	0	-0	20.61 4.45006 1.43784 15.5227	-10.81	-176.521	0 -30.3438 0 -0	25.0762	-0	0 -18.964 0 1.35226e-014	-2.62817e-015	-111.997	0 -9.48199 0 1.22245	4.37968	-2.58917e-014	0 -3.17138 0 -0	7.12502	-0	0 -9.48199 0 25	15	-1.36605e-015	0.0883157 12.5016 0.82912 15	0	-0	-20.61 4.45 1.44 -15.5987	-8.40183	174.285	0 -29.5102 0 -0	34.8977	-0	0 -19.2342 0 5.83871e-016	-2.80229e-015	113.539	0 -9.61712 0 1.22	4.38	-0	0 -3.29215 0 -0	7.12502	-0	0 -9.61712 0 25	15	-7.97034e-015	-8.46272 -9.62775 4.76248 -2.89217	-20.266	-5.37038	1.00552e-005 -38.0331 0 -0	54.0938	-0	1.14428e-005 -43.2815 0 -55.9913	-80.9528	-56.3234	0 -14.1868 -3.08763 -0	-41.3356	-0	9.10607 -9.62778 4.76249 5.6269	-18.8742	10.4424	-1.01399e-005 -38.3535 0 -0	40.2834	-0	-1.12937e-005 -42.7176 0 6.70778	-82.8172	6.76047	0 -13.9965 -2.83857 -0	-32.7871	-0
-0.0335258	92.9321	20.7018	-1.12812	1.56823	2.36327	0 0 0 0.398528	10.8955	0.969445	-0.214371 12.3768 -1.12219 -0.27289	12.2295	0.603023	-0.00137213 12.3873 0.296195 -0.547268	6.83064	0.0543024	0.0883157 12.5016 0.82912 -1.57973	-1.34706	-2.66164	-1 10.1794 0.943522 6.79039	4.94724	-3.88721	0.667525 10.2797 -1.57149 2.30374	1.97491	-1.8435	0.0883157 12.5016 0.82912 -15	0	-0	20.61 4.45006 1.43784 15.6288	-10.9277	-176.766	0 -30.3438 0 -0	25.5102	-0	0 -18.964 0 1.35335e-014	-2.601e-015	-111.758	0 -9.48199 0 1.22245	4.37968	-2.58917e-014	0 -3.17138 0 -0	7.12502	-0	0 -9.48199 0 25	15	-1.36605e-015	0.0883157 12.5016 0.82912 15	0	-0	-20.61 4.45 1.44 -15.5385	-8.38569	174.427	0 -29.5102 0 -0	35.0206	-0	0 -19.2342 0 5.81965e-016	-2.79791e-015	113.5	0 -9.61712 0 1.22	4.38	-0	0 -3.29215 0 -0	7.12502	-0	0 -9.61712 0 25	15	-7.97034e-015	-8.46272 -9.62775 4.76248 -3.02894	-20.6826	-5.40854	1.00552e-005 -38.0331 0 -0	54.7172	-0	1.14428e-005 -43.2815 0 -54.8479	-80.7729	-55.1987	0 -14.1868 -3.08763 -0	-41.4695	-0	9.10607 -9.62778 4.76249 5.56153	-18.6704	10.5378	-1.01399e-005 -38.3535 0 -0	40.1197	-0	-1.12937e-005 -42.7176 0 6.77835	-82.8774	6.83069	0 -13.9965 -2.83857 -0	-32.7819	-0
0.0156829	92.9507	20.867	-1.08327	1.60326	2.2366	0 0 0 0.233189	10.9196	1.00187	-0.214371 12.3768 -1.12219 -0.358491	12.2214	0.63957	-0.00137213 12.3873 0.296195 -0.543682	6.8069	0.0632269	0.0883157 12.5016 0.82912 -1.63554	-1.35763	-2.64183	-1 10.1794 0.943522 6.73779	4.94509	-3.85503	0.667525 10.2797 -1.57149 2.29752	1.9752	-1.82905	0.0883157 12.5016 0.82912 -15	0	-0	20.61 4.45006 1.43784 15.7469	-11.0431	-177.039	0 -30.3438 0 -0	26	-0	0 -18.964 0 1.35454e-014	-2.57118e-015	-111.496	0 -9.48199 0 1.22245	4.37968	-2.58917e-014	0 -3.17138 0 -0	7.12502	-0	0 -9.48199 0 25	15	-1.36605e-015	0.0883157 12.5016 0.82912 15	0	-0	-20.61 4.45 1.44 -15.482	-8.36231	174.577	0 -29.5102 0 -0	35.1713	-0	0 -19.2342 0 5.79185e-016	-2.7915e-015	113.443	0 -9.61712 0 1.22	4.38	-0	0 -3.29215 0 -0	7.12502	-0	0 -9.61712 0 25	15	-7.97034e-015	-8.46272 -9.62775 4.76248 -3.15989	-21.1039	-5.44635	1.00552e-005 -38.0331 0 -0	55.2875	-0	1.14428e-005 -43.2815 0 -53.8969	-80.6471	-54.2615	0 -14.1868 -3.08763 -0	-41.5927	-0	9.10607 -9.62778 4.76249 5.49775	-18.4719	10.6353	-1.01399e-005 -38.3535 0 -0	39.9656	-0	-1.12937e-005 -42.7176 0 6.85949	-82.9415	6.91149	0 -13.9965 -2.83857 -0	-32.7788	-0
0.053956	92.9677	21.0326	-1.03794	1.63671	2.11228	0 0 0 0.069673	10.9428	1.03308	-0.214371 12.3768 -1.12219 -0.442494	12.2162	0.674042	-0.00137213 12.3873 0.296195 -0.539565	6.78692	0.0711034	0.0883157 12.5016 0.82912 -1.68323	-1.36718	-2.62282	-1 10.1794 0.943522 6.68558	4.94336	-3.82425	0.667525 10.2797 -1.57149 2.2899	1.97546	-1.81519	0.0883157 12.5016 0.82912 -15	0	-0	20.61 4.45006 1.43784 15.8756	-11.1586	-177.334	0 -30.3438 0 -0	26.5365	-0	0 -18.964 0 1.35579e-014	-2.53913e-015	-111.215	0 -9.48199 0 1.22245	4.37968	-2.58917e-014	0 -3.17138 0 -0	7.12502	-0	0 -9.48199 0 25	15	-1.36605e-015	0.0883157 12.5016 0.82912 15	0	-0	-20.61 4.45 1.44 -15.4298	-8.33169	174.734	0 -29.5102 0 -0	35.3487	-0	0 -19.2342 0 5.75634e-016	-2.7833e-015	113.37	0 -9.61712 0 1.22	4.38	-0	0 -3.29215 0 -0	7.12502	-0	0 -9.61712 0 25	15	-7.97034e-015	-8.46272 -9.62775 4.76248 -3.27939	-21.5246	-5.48166	1.00552e-005 -38.0331 0 -0	55.7844	-0	1.14428e-005 -43.2815 0 -53.113	-80.5841	-53.4857	0 -14.1868 -3.08763 -0	-41.732	-0	9.10607 -9.62778 4.76249 5.43955	-18.28	10.733	-1.01399e-005 -38.3535 0 -0	39.8245	-0	-1.12937e-005 -42.7176 0 6.94961	-83.0106	7.00125	0 -13.9965 -2.83857 -0	-32.7766	-0
